<svg xmlns="http://www.w3.org/2000/svg" width="602" height="112" viewBox="0 0 602 112">
  <rect width="602" height="112" fill="#0d1117" rx="6"/>
  <text x="10" y="14" font-size="11" fill="#8b949e" font-family="monospace">Activity — last 52 weeks</text>
  <rect x="15" y="22" width="10" height="10" rx="2" ry="2" fill="#161b22"><title>2025-08-21: 0 problem(s)</title></rect>
  <rect x="15" y="33" width="10" height="10" rx="2" ry="2" fill="#161b22"><title>2025-08-22: 0 problem(s)</title></rect>
  <rect x="15" y="44" width="10" height="10" rx="2" ry="2" fill="#161b22"><title>2025-08-23: 0 problem(s)</title></rect>
  <rect x="15" y="55" width="10" height="10" rx="2" ry="2" fill="#161b22"><title>2025-08-24: 0 problem(s)</title></rect>
  <rect x="15" y="66" width="10" height="10" rx="2" ry="2" fill="#161b22"><title>2025-08-25: 0 problem(s)</title></rect>
  <rect x="15" y="77" width="10" height="10" rx="2" ry="2" fill="#161b22"><title>2025-08-26: 0 problem(s)</title></rect>
  <rect x="15" y="88" width="10" height="10" rx="2" ry="2" fill="#161b22"><title>2025-08-27: 0 problem(s)</title></rect>
  <rect x="26" y="22" width="10" height="10" rx="2" ry="2" fill="#161b22"><title>2025-08-28: 0 problem(s)</title></rect>
  <rect x="26" y="33" width="10" height="10" rx="2" ry="2" fill="#161b22"><title>2025-08-29: 0 problem(s)</title></rect>
  <rect x="26" y="44" width="10" height="10" rx="2" ry="2" fill="#161b22"><title>2025-08-30: 0 problem(s)</title></rect>
  <rect x="26" y="55" width="10" height="10" rx="2" ry="2" fill="#161b22"><title>2025-08-31: 0 problem(s)</title></rect>
  <rect x="26" y="66" width="10" height="10" rx="2" ry="2" fill="#161b22"><title>2025-09-01: 0 problem(s)</title></rect>
  <rect x="26" y="77" width="10" height="10" rx="2" ry="2" fill="#161b22"><title>2025-09-02: 0 problem(s)</title></rect>
  <rect x="26" y="88" width="10" height="10" rx="2" ry="2" fill="#161b22"><title>2025-09-03: 0 problem(s)</title></rect>
  <rect x="37" y="22" width="10" height="10" rx="2" ry="2" fill="#161b22"><title>2025-09-04: 0 problem(s)</title></rect>
  <rect x="37" y="33" width="10" height="10" rx="2" ry="2" fill="#161b22"><title>2025-09-05: 0 problem(s)</title></rect>
  <rect x="37" y="44" width="10" height="10" rx="2" ry="2" fill="#161b22"><title>2025-09-06: 0 problem(s)</title></rect>
  <rect x="37" y="55" width="10" height="10" rx="2" ry="2" fill="#161b22"><title>2025-09-07: 0 problem(s)</title></rect>
  <rect x="37" y="66" width="10" height="10" rx="2" ry="2" fill="#161b22"><title>2025-09-08: 0 problem(s)</title></rect>
  <rect x="37" y="77" width="10" height="10" rx="2" ry="2" fill="#161b22"><title>2025-09-09: 0 problem(s)</title></rect>
  <rect x="37" y="88" width="10" height="10" rx="2" ry="2" fill="#161b22"><title>2025-09-10: 0 problem(s)</title></rect>
  <rect x="48" y="22" width="10" height="10" rx="2" ry="2" fill="#161b22"><title>2025-09-11: 0 problem(s)</title></rect>
  <rect x="48" y="33" width="10" height="10" rx="2" ry="2" fill="#161b22"><title>2025-09-12: 0 problem(s)</title></rect>
  <rect x="48" y="44" width="10" height="10" rx="2" ry="2" fill="#161b22"><title>2025-09-13: 0 problem(s)</title></rect>
  <rect x="48" y="55" width="10" height="10" rx="2" ry="2" fill="#161b22"><title>2025-09-14: 0 problem(s)</title></rect>
  <rect x="48" y="66" width="10" height="10" rx="2" ry="2" fill="#161b22"><title>2025-09-15: 0 problem(s)</title></rect>
  <rect x="48" y="77" width="10" height="10" rx="2" ry="2" fill="#161b22"><title>2025-09-16: 0 problem(s)</title></rect>
  <rect x="48" y="88" width="10" height="10" rx="2" ry="2" fill="#161b22"><title>2025-09-17: 0 problem(s)</title></rect>
  <rect x="59" y="22" width="10" height="10" rx="2" ry="2" fill="#161b22"><title>2025-09-18: 0 problem(s)</title></rect>
  <rect x="59" y="33" width="10" height="10" rx="2" ry="2" fill="#161b22"><title>2025-09-19: 0 problem(s)</title></rect>
  <rect x="59" y="44" width="10" height="10" rx="2" ry="2" fill="#161b22"><title>2025-09-20: 0 problem(s)</title></rect>
  <rect x="59" y="55" width="10" height="10" rx="2" ry="2" fill="#161b22"><title>2025-09-21: 0 problem(s)</title></rect>
  <rect x="59" y="66" width="10" height="10" rx="2" ry="2" fill="#161b22"><title>2025-09-22: 0 problem(s)</title></rect>
  <rect x="59" y="77" width="10" height="10" rx="2" ry="2" fill="#161b22"><title>2025-09-23: 0 problem(s)</title></rect>
  <rect x="59" y="88" width="10" height="10" rx="2" ry="2" fill="#161b22"><title>2025-09-24: 0 problem(s)</title></rect>
  <rect x="70" y="22" width="10" height="10" rx="2" ry="2" fill="#161b22"><title>2025-09-25: 0 problem(s)</title></rect>
  <rect x="70" y="33" width="10" height="10" rx="2" ry="2" fill="#161b22"><title>2025-09-26: 0 problem(s)</title></rect>
  <rect x="70" y="44" width="10" height="10" rx="2" ry="2" fill="#161b22"><title>2025-09-27: 0 problem(s)</title></rect>
  <rect x="70" y="55" width="10" height="10" rx="2" ry="2" fill="#161b22"><title>2025-09-28: 0 problem(s)</title></rect>
  <rect x="70" y="66" width="10" height="10" rx="2" ry="2" fill="#161b22"><title>2025-09-29: 0 problem(s)</title></rect>
  <rect x="70" y="77" width="10" height="10" rx="2" ry="2" fill="#161b22"><title>2025-09-30: 0 problem(s)</title></rect>
  <rect x="70" y="88" width="10" height="10" rx="2" ry="2" fill="#161b22"><title>2025-10-01: 0 problem(s)</title></rect>
  <rect x="81" y="22" width="10" height="10" rx="2" ry="2" fill="#161b22"><title>2025-10-02: 0 problem(s)</title></rect>
  <rect x="81" y="33" width="10" height="10" rx="2" ry="2" fill="#161b22"><title>2025-10-03: 0 problem(s)</title></rect>
  <rect x="81" y="44" width="10" height="10" rx="2" ry="2" fill="#161b22"><title>2025-10-04: 0 problem(s)</title></rect>
  <rect x="81" y="55" width="10" height="10" rx="2" ry="2" fill="#161b22"><title>2025-10-05: 0 problem(s)</title></rect>
  <rect x="81" y="66" width="10" height="10" rx="2" ry="2" fill="#161b22"><title>2025-10-06: 0 problem(s)</title></rect>
  <rect x="81" y="77" width="10" height="10" rx="2" ry="2" fill="#161b22"><title>2025-10-07: 0 problem(s)</title></rect>
  <rect x="81" y="88" width="10" height="10" rx="2" ry="2" fill="#161b22"><title>2025-10-08: 0 problem(s)</title></rect>
  <rect x="92" y="22" width="10" height="10" rx="2" ry="2" fill="#161b22"><title>2025-10-09: 0 problem(s)</title></rect>
  <rect x="92" y="33" width="10" height="10" rx="2" ry="2" fill="#161b22"><title>2025-10-10: 0 problem(s)</title></rect>
  <rect x="92" y="44" width="10" height="10" rx="2" ry="2" fill="#161b22"><title>2025-10-11: 0 problem(s)</title></rect>
  <rect x="92" y="55" width="10" height="10" rx="2" ry="2" fill="#161b22"><title>2025-10-12: 0 problem(s)</title></rect>
  <rect x="92" y="66" width="10" height="10" rx="2" ry="2" fill="#161b22"><title>2025-10-13: 0 problem(s)</title></rect>
  <rect x="92" y="77" width="10" height="10" rx="2" ry="2" fill="#161b22"><title>2025-10-14: 0 problem(s)</title></rect>
  <rect x="92" y="88" width="10" height="10" rx="2" ry="2" fill="#161b22"><title>2025-10-15: 0 problem(s)</title></rect>
  <rect x="103" y="22" width="10" height="10" rx="2" ry="2" fill="#161b22"><title>2025-10-16: 0 problem(s)</title></rect>
  <rect x="103" y="33" width="10" height="10" rx="2" ry="2" fill="#161b22"><title>2025-10-17: 0 problem(s)</title></rect>
  <rect x="103" y="44" width="10" height="10" rx="2" ry="2" fill="#161b22"><title>2025-10-18: 0 problem(s)</title></rect>
  <rect x="103" y="55" width="10" height="10" rx="2" ry="2" fill="#161b22"><title>2025-10-19: 0 problem(s)</title></rect>
  <rect x="103" y="66" width="10" height="10" rx="2" ry="2" fill="#161b22"><title>2025-10-20: 0 problem(s)</title></rect>
  <rect x="103" y="77" width="10" height="10" rx="2" ry="2" fill="#161b22"><title>2025-10-21: 0 problem(s)</title></rect>
  <rect x="103" y="88" width="10" height="10" rx="2" ry="2" fill="#161b22"><title>2025-10-22: 0 problem(s)</title></rect>
  <rect x="114" y="22" width="10" height="10" rx="2" ry="2" fill="#161b22"><title>2025-10-23: 0 problem(s)</title></rect>
  <rect x="114" y="33" width="10" height="10" rx="2" ry="2" fill="#161b22"><title>2025-10-24: 0 problem(s)</title></rect>
  <rect x="114" y="44" width="10" height="10" rx="2" ry="2" fill="#161b22"><title>2025-10-25: 0 problem(s)</title></rect>
  <rect x="114" y="55" width="10" height="10" rx="2" ry="2" fill="#161b22"><title>2025-10-26: 0 problem(s)</title></rect>
  <rect x="114" y="66" width="10" height="10" rx="2" ry="2" fill="#161b22"><title>2025-10-27: 0 problem(s)</title></rect>
  <rect x="114" y="77" width="10" height="10" rx="2" ry="2" fill="#161b22"><title>2025-10-28: 0 problem(s)</title></rect>
  <rect x="114" y="88" width="10" height="10" rx="2" ry="2" fill="#161b22"><title>2025-10-29: 0 problem(s)</title></rect>
  <rect x="125" y="22" width="10" height="10" rx="2" ry="2" fill="#161b22"><title>2025-10-30: 0 problem(s)</title></rect>
  <rect x="125" y="33" width="10" height="10" rx="2" ry="2" fill="#161b22"><title>2025-10-31: 0 problem(s)</title></rect>
  <rect x="125" y="44" width="10" height="10" rx="2" ry="2" fill="#161b22"><title>2025-11-01: 0 problem(s)</title></rect>
  <rect x="125" y="55" width="10" height="10" rx="2" ry="2" fill="#161b22"><title>2025-11-02: 0 problem(s)</title></rect>
  <rect x="125" y="66" width="10" height="10" rx="2" ry="2" fill="#161b22"><title>2025-11-03: 0 problem(s)</title></rect>
  <rect x="125" y="77" width="10" height="10" rx="2" ry="2" fill="#161b22"><title>2025-11-04: 0 problem(s)</title></rect>
  <rect x="125" y="88" width="10" height="10" rx="2" ry="2" fill="#161b22"><title>2025-11-05: 0 problem(s)</title></rect>
  <rect x="136" y="22" width="10" height="10" rx="2" ry="2" fill="#161b22"><title>2025-11-06: 0 problem(s)</title></rect>
  <rect x="136" y="33" width="10" height="10" rx="2" ry="2" fill="#161b22"><title>2025-11-07: 0 problem(s)</title></rect>
  <rect x="136" y="44" width="10" height="10" rx="2" ry="2" fill="#161b22"><title>2025-11-08: 0 problem(s)</title></rect>
  <rect x="136" y="55" width="10" height="10" rx="2" ry="2" fill="#161b22"><title>2025-11-09: 0 problem(s)</title></rect>
  <rect x="136" y="66" width="10" height="10" rx="2" ry="2" fill="#161b22"><title>2025-11-10: 0 problem(s)</title></rect>
  <rect x="136" y="77" width="10" height="10" rx="2" ry="2" fill="#161b22"><title>2025-11-11: 0 problem(s)</title></rect>
  <rect x="136" y="88" width="10" height="10" rx="2" ry="2" fill="#161b22"><title>2025-11-12: 0 problem(s)</title></rect>
  <rect x="147" y="22" width="10" height="10" rx="2" ry="2" fill="#161b22"><title>2025-11-13: 0 problem(s)</title></rect>
  <rect x="147" y="33" width="10" height="10" rx="2" ry="2" fill="#161b22"><title>2025-11-14: 0 problem(s)</title></rect>
  <rect x="147" y="44" width="10" height="10" rx="2" ry="2" fill="#161b22"><title>2025-11-15: 0 problem(s)</title></rect>
  <rect x="147" y="55" width="10" height="10" rx="2" ry="2" fill="#161b22"><title>2025-11-16: 0 problem(s)</title></rect>
  <rect x="147" y="66" width="10" height="10" rx="2" ry="2" fill="#161b22"><title>2025-11-17: 0 problem(s)</title></rect>
  <rect x="147" y="77" width="10" height="10" rx="2" ry="2" fill="#161b22"><title>2025-11-18: 0 problem(s)</title></rect>
  <rect x="147" y="88" width="10" height="10" rx="2" ry="2" fill="#161b22"><title>2025-11-19: 0 problem(s)</title></rect>
  <rect x="158" y="22" width="10" height="10" rx="2" ry="2" fill="#161b22"><title>2025-11-20: 0 problem(s)</title></rect>
  <rect x="158" y="33" width="10" height="10" rx="2" ry="2" fill="#161b22"><title>2025-11-21: 0 problem(s)</title></rect>
  <rect x="158" y="44" width="10" height="10" rx="2" ry="2" fill="#161b22"><title>2025-11-22: 0 problem(s)</title></rect>
  <rect x="158" y="55" width="10" height="10" rx="2" ry="2" fill="#161b22"><title>2025-11-23: 0 problem(s)</title></rect>
  <rect x="158" y="66" width="10" height="10" rx="2" ry="2" fill="#161b22"><title>2025-11-24: 0 problem(s)</title></rect>
  <rect x="158" y="77" width="10" height="10" rx="2" ry="2" fill="#161b22"><title>2025-11-25: 0 problem(s)</title></rect>
  <rect x="158" y="88" width="10" height="10" rx="2" ry="2" fill="#161b22"><title>2025-11-26: 0 problem(s)</title></rect>
  <rect x="169" y="22" width="10" height="10" rx="2" ry="2" fill="#161b22"><title>2025-11-27: 0 problem(s)</title></rect>
  <rect x="169" y="33" width="10" height="10" rx="2" ry="2" fill="#161b22"><title>2025-11-28: 0 problem(s)</title></rect>
  <rect x="169" y="44" width="10" height="10" rx="2" ry="2" fill="#161b22"><title>2025-11-29: 0 problem(s)</title></rect>
  <rect x="169" y="55" width="10" height="10" rx="2" ry="2" fill="#161b22"><title>2025-11-30: 0 problem(s)</title></rect>
  <rect x="169" y="66" width="10" height="10" rx="2" ry="2" fill="#161b22"><title>2025-12-01: 0 problem(s)</title></rect>
  <rect x="169" y="77" width="10" height="10" rx="2" ry="2" fill="#161b22"><title>2025-12-02: 0 problem(s)</title></rect>
  <rect x="169" y="88" width="10" height="10" rx="2" ry="2" fill="#161b22"><title>2025-12-03: 0 problem(s)</title></rect>
  <rect x="180" y="22" width="10" height="10" rx="2" ry="2" fill="#161b22"><title>2025-12-04: 0 problem(s)</title></rect>
  <rect x="180" y="33" width="10" height="10" rx="2" ry="2" fill="#161b22"><title>2025-12-05: 0 problem(s)</title></rect>
  <rect x="180" y="44" width="10" height="10" rx="2" ry="2" fill="#161b22"><title>2025-12-06: 0 problem(s)</title></rect>
  <rect x="180" y="55" width="10" height="10" rx="2" ry="2" fill="#161b22"><title>2025-12-07: 0 problem(s)</title></rect>
  <rect x="180" y="66" width="10" height="10" rx="2" ry="2" fill="#161b22"><title>2025-12-08: 0 problem(s)</title></rect>
  <rect x="180" y="77" width="10" height="10" rx="2" ry="2" fill="#161b22"><title>2025-12-09: 0 problem(s)</title></rect>
  <rect x="180" y="88" width="10" height="10" rx="2" ry="2" fill="#161b22"><title>2025-12-10: 0 problem(s)</title></rect>
  <rect x="191" y="22" width="10" height="10" rx="2" ry="2" fill="#161b22"><title>2025-12-11: 0 problem(s)</title></rect>
  <rect x="191" y="33" width="10" height="10" rx="2" ry="2" fill="#161b22"><title>2025-12-12: 0 problem(s)</title></rect>
  <rect x="191" y="44" width="10" height="10" rx="2" ry="2" fill="#161b22"><title>2025-12-13: 0 problem(s)</title></rect>
  <rect x="191" y="55" width="10" height="10" rx="2" ry="2" fill="#161b22"><title>2025-12-14: 0 problem(s)</title></rect>
  <rect x="191" y="66" width="10" height="10" rx="2" ry="2" fill="#161b22"><title>2025-12-15: 0 problem(s)</title></rect>
  <rect x="191" y="77" width="10" height="10" rx="2" ry="2" fill="#161b22"><title>2025-12-16: 0 problem(s)</title></rect>
  <rect x="191" y="88" width="10" height="10" rx="2" ry="2" fill="#161b22"><title>2025-12-17: 0 problem(s)</title></rect>
  <rect x="202" y="22" width="10" height="10" rx="2" ry="2" fill="#161b22"><title>2025-12-18: 0 problem(s)</title></rect>
  <rect x="202" y="33" width="10" height="10" rx="2" ry="2" fill="#161b22"><title>2025-12-19: 0 problem(s)</title></rect>
  <rect x="202" y="44" width="10" height="10" rx="2" ry="2" fill="#161b22"><title>2025-12-20: 0 problem(s)</title></rect>
  <rect x="202" y="55" width="10" height="10" rx="2" ry="2" fill="#161b22"><title>2025-12-21: 0 problem(s)</title></rect>
  <rect x="202" y="66" width="10" height="10" rx="2" ry="2" fill="#161b22"><title>2025-12-22: 0 problem(s)</title></rect>
  <rect x="202" y="77" width="10" height="10" rx="2" ry="2" fill="#161b22"><title>2025-12-23: 0 problem(s)</title></rect>
  <rect x="202" y="88" width="10" height="10" rx="2" ry="2" fill="#161b22"><title>2025-12-24: 0 problem(s)</title></rect>
  <rect x="213" y="22" width="10" height="10" rx="2" ry="2" fill="#161b22"><title>2025-12-25: 0 problem(s)</title></rect>
  <rect x="213" y="33" width="10" height="10" rx="2" ry="2" fill="#161b22"><title>2025-12-26: 0 problem(s)</title></rect>
  <rect x="213" y="44" width="10" height="10" rx="2" ry="2" fill="#161b22"><title>2025-12-27: 0 problem(s)</title></rect>
  <rect x="213" y="55" width="10" height="10" rx="2" ry="2" fill="#161b22"><title>2025-12-28: 0 problem(s)</title></rect>
  <rect x="213" y="66" width="10" height="10" rx="2" ry="2" fill="#161b22"><title>2025-12-29: 0 problem(s)</title></rect>
  <rect x="213" y="77" width="10" height="10" rx="2" ry="2" fill="#161b22"><title>2025-12-30: 0 problem(s)</title></rect>
  <rect x="213" y="88" width="10" height="10" rx="2" ry="2" fill="#161b22"><title>2025-12-31: 0 problem(s)</title></rect>
  <rect x="224" y="22" width="10" height="10" rx="2" ry="2" fill="#161b22"><title>2026-01-01: 0 problem(s)</title></rect>
  <rect x="224" y="33" width="10" height="10" rx="2" ry="2" fill="#161b22"><title>2026-01-02: 0 problem(s)</title></rect>
  <rect x="224" y="44" width="10" height="10" rx="2" ry="2" fill="#161b22"><title>2026-01-03: 0 problem(s)</title></rect>
  <rect x="224" y="55" width="10" height="10" rx="2" ry="2" fill="#161b22"><title>2026-01-04: 0 problem(s)</title></rect>
  <rect x="224" y="66" width="10" height="10" rx="2" ry="2" fill="#161b22"><title>2026-01-05: 0 problem(s)</title></rect>
  <rect x="224" y="77" width="10" height="10" rx="2" ry="2" fill="#161b22"><title>2026-01-06: 0 problem(s)</title></rect>
  <rect x="224" y="88" width="10" height="10" rx="2" ry="2" fill="#161b22"><title>2026-01-07: 0 problem(s)</title></rect>
  <rect x="235" y="22" width="10" height="10" rx="2" ry="2" fill="#161b22"><title>2026-01-08: 0 problem(s)</title></rect>
  <rect x="235" y="33" width="10" height="10" rx="2" ry="2" fill="#161b22"><title>2026-01-09: 0 problem(s)</title></rect>
  <rect x="235" y="44" width="10" height="10" rx="2" ry="2" fill="#161b22"><title>2026-01-10: 0 problem(s)</title></rect>
  <rect x="235" y="55" width="10" height="10" rx="2" ry="2" fill="#161b22"><title>2026-01-11: 0 problem(s)</title></rect>
  <rect x="235" y="66" width="10" height="10" rx="2" ry="2" fill="#161b22"><title>2026-01-12: 0 problem(s)</title></rect>
  <rect x="235" y="77" width="10" height="10" rx="2" ry="2" fill="#161b22"><title>2026-01-13: 0 problem(s)</title></rect>
  <rect x="235" y="88" width="10" height="10" rx="2" ry="2" fill="#161b22"><title>2026-01-14: 0 problem(s)</title></rect>
  <rect x="246" y="22" width="10" height="10" rx="2" ry="2" fill="#161b22"><title>2026-01-15: 0 problem(s)</title></rect>
  <rect x="246" y="33" width="10" height="10" rx="2" ry="2" fill="#161b22"><title>2026-01-16: 0 problem(s)</title></rect>
  <rect x="246" y="44" width="10" height="10" rx="2" ry="2" fill="#161b22"><title>2026-01-17: 0 problem(s)</title></rect>
  <rect x="246" y="55" width="10" height="10" rx="2" ry="2" fill="#161b22"><title>2026-01-18: 0 problem(s)</title></rect>
  <rect x="246" y="66" width="10" height="10" rx="2" ry="2" fill="#161b22"><title>2026-01-19: 0 problem(s)</title></rect>
  <rect x="246" y="77" width="10" height="10" rx="2" ry="2" fill="#161b22"><title>2026-01-20: 0 problem(s)</title></rect>
  <rect x="246" y="88" width="10" height="10" rx="2" ry="2" fill="#161b22"><title>2026-01-21: 0 problem(s)</title></rect>
  <rect x="257" y="22" width="10" height="10" rx="2" ry="2" fill="#161b22"><title>2026-01-22: 0 problem(s)</title></rect>
  <rect x="257" y="33" width="10" height="10" rx="2" ry="2" fill="#161b22"><title>2026-01-23: 0 problem(s)</title></rect>
  <rect x="257" y="44" width="10" height="10" rx="2" ry="2" fill="#161b22"><title>2026-01-24: 0 problem(s)</title></rect>
  <rect x="257" y="55" width="10" height="10" rx="2" ry="2" fill="#161b22"><title>2026-01-25: 0 problem(s)</title></rect>
  <rect x="257" y="66" width="10" height="10" rx="2" ry="2" fill="#161b22"><title>2026-01-26: 0 problem(s)</title></rect>
  <rect x="257" y="77" width="10" height="10" rx="2" ry="2" fill="#161b22"><title>2026-01-27: 0 problem(s)</title></rect>
  <rect x="257" y="88" width="10" height="10" rx="2" ry="2" fill="#161b22"><title>2026-01-28: 0 problem(s)</title></rect>
  <rect x="268" y="22" width="10" height="10" rx="2" ry="2" fill="#161b22"><title>2026-01-29: 0 problem(s)</title></rect>
  <rect x="268" y="33" width="10" height="10" rx="2" ry="2" fill="#161b22"><title>2026-01-30: 0 problem(s)</title></rect>
  <rect x="268" y="44" width="10" height="10" rx="2" ry="2" fill="#161b22"><title>2026-01-31: 0 problem(s)</title></rect>
  <rect x="268" y="55" width="10" height="10" rx="2" ry="2" fill="#161b22"><title>2026-02-01: 0 problem(s)</title></rect>
  <rect x="268" y="66" width="10" height="10" rx="2" ry="2" fill="#161b22"><title>2026-02-02: 0 problem(s)</title></rect>
  <rect x="268" y="77" width="10" height="10" rx="2" ry="2" fill="#161b22"><title>2026-02-03: 0 problem(s)</title></rect>
  <rect x="268" y="88" width="10" height="10" rx="2" ry="2" fill="#161b22"><title>2026-02-04: 0 problem(s)</title></rect>
  <rect x="279" y="22" width="10" height="10" rx="2" ry="2" fill="#161b22"><title>2026-02-05: 0 problem(s)</title></rect>
  <rect x="279" y="33" width="10" height="10" rx="2" ry="2" fill="#161b22"><title>2026-02-06: 0 problem(s)</title></rect>
  <rect x="279" y="44" width="10" height="10" rx="2" ry="2" fill="#161b22"><title>2026-02-07: 0 problem(s)</title></rect>
  <rect x="279" y="55" width="10" height="10" rx="2" ry="2" fill="#161b22"><title>2026-02-08: 0 problem(s)</title></rect>
  <rect x="279" y="66" width="10" height="10" rx="2" ry="2" fill="#161b22"><title>2026-02-09: 0 problem(s)</title></rect>
  <rect x="279" y="77" width="10" height="10" rx="2" ry="2" fill="#161b22"><title>2026-02-10: 0 problem(s)</title></rect>
  <rect x="279" y="88" width="10" height="10" rx="2" ry="2" fill="#161b22"><title>2026-02-11: 0 problem(s)</title></rect>
  <rect x="290" y="22" width="10" height="10" rx="2" ry="2" fill="#161b22"><title>2026-02-12: 0 problem(s)</title></rect>
  <rect x="290" y="33" width="10" height="10" rx="2" ry="2" fill="#161b22"><title>2026-02-13: 0 problem(s)</title></rect>
  <rect x="290" y="44" width="10" height="10" rx="2" ry="2" fill="#161b22"><title>2026-02-14: 0 problem(s)</title></rect>
  <rect x="290" y="55" width="10" height="10" rx="2" ry="2" fill="#161b22"><title>2026-02-15: 0 problem(s)</title></rect>
  <rect x="290" y="66" width="10" height="10" rx="2" ry="2" fill="#161b22"><title>2026-02-16: 0 problem(s)</title></rect>
  <rect x="290" y="77" width="10" height="10" rx="2" ry="2" fill="#161b22"><title>2026-02-17: 0 problem(s)</title></rect>
  <rect x="290" y="88" width="10" height="10" rx="2" ry="2" fill="#161b22"><title>2026-02-18: 0 problem(s)</title></rect>
  <rect x="301" y="22" width="10" height="10" rx="2" ry="2" fill="#161b22"><title>2026-02-19: 0 problem(s)</title></rect>
  <rect x="301" y="33" width="10" height="10" rx="2" ry="2" fill="#161b22"><title>2026-02-20: 0 problem(s)</title></rect>
  <rect x="301" y="44" width="10" height="10" rx="2" ry="2" fill="#161b22"><title>2026-02-21: 0 problem(s)</title></rect>
  <rect x="301" y="55" width="10" height="10" rx="2" ry="2" fill="#161b22"><title>2026-02-22: 0 problem(s)</title></rect>
  <rect x="301" y="66" width="10" height="10" rx="2" ry="2" fill="#161b22"><title>2026-02-23: 0 problem(s)</title></rect>
  <rect x="301" y="77" width="10" height="10" rx="2" ry="2" fill="#161b22"><title>2026-02-24: 0 problem(s)</title></rect>
  <rect x="301" y="88" width="10" height="10" rx="2" ry="2" fill="#161b22"><title>2026-02-25: 0 problem(s)</title></rect>
  <rect x="312" y="22" width="10" height="10" rx="2" ry="2" fill="#161b22"><title>2026-02-26: 0 problem(s)</title></rect>
  <rect x="312" y="33" width="10" height="10" rx="2" ry="2" fill="#161b22"><title>2026-02-27: 0 problem(s)</title></rect>
  <rect x="312" y="44" width="10" height="10" rx="2" ry="2" fill="#161b22"><title>2026-02-28: 0 problem(s)</title></rect>
  <rect x="312" y="55" width="10" height="10" rx="2" ry="2" fill="#161b22"><title>2026-03-01: 0 problem(s)</title></rect>
  <rect x="312" y="66" width="10" height="10" rx="2" ry="2" fill="#161b22"><title>2026-03-02: 0 problem(s)</title></rect>
  <rect x="312" y="77" width="10" height="10" rx="2" ry="2" fill="#161b22"><title>2026-03-03: 0 problem(s)</title></rect>
  <rect x="312" y="88" width="10" height="10" rx="2" ry="2" fill="#161b22"><title>2026-03-04: 0 problem(s)</title></rect>
  <rect x="323" y="22" width="10" height="10" rx="2" ry="2" fill="#161b22"><title>2026-03-05: 0 problem(s)</title></rect>
  <rect x="323" y="33" width="10" height="10" rx="2" ry="2" fill="#161b22"><title>2026-03-06: 0 problem(s)</title></rect>
  <rect x="323" y="44" width="10" height="10" rx="2" ry="2" fill="#161b22"><title>2026-03-07: 0 problem(s)</title></rect>
  <rect x="323" y="55" width="10" height="10" rx="2" ry="2" fill="#161b22"><title>2026-03-08: 0 problem(s)</title></rect>
  <rect x="323" y="66" width="10" height="10" rx="2" ry="2" fill="#161b22"><title>2026-03-09: 0 problem(s)</title></rect>
  <rect x="323" y="77" width="10" height="10" rx="2" ry="2" fill="#161b22"><title>2026-03-10: 0 problem(s)</title></rect>
  <rect x="323" y="88" width="10" height="10" rx="2" ry="2" fill="#161b22"><title>2026-03-11: 0 problem(s)</title></rect>
  <rect x="334" y="22" width="10" height="10" rx="2" ry="2" fill="#161b22"><title>2026-03-12: 0 problem(s)</title></rect>
  <rect x="334" y="33" width="10" height="10" rx="2" ry="2" fill="#161b22"><title>2026-03-13: 0 problem(s)</title></rect>
  <rect x="334" y="44" width="10" height="10" rx="2" ry="2" fill="#161b22"><title>2026-03-14: 0 problem(s)</title></rect>
  <rect x="334" y="55" width="10" height="10" rx="2" ry="2" fill="#161b22"><title>2026-03-15: 0 problem(s)</title></rect>
  <rect x="334" y="66" width="10" height="10" rx="2" ry="2" fill="#161b22"><title>2026-03-16: 0 problem(s)</title></rect>
  <rect x="334" y="77" width="10" height="10" rx="2" ry="2" fill="#161b22"><title>2026-03-17: 0 problem(s)</title></rect>
  <rect x="334" y="88" width="10" height="10" rx="2" ry="2" fill="#161b22"><title>2026-03-18: 0 problem(s)</title></rect>
  <rect x="345" y="22" width="10" height="10" rx="2" ry="2" fill="#161b22"><title>2026-03-19: 0 problem(s)</title></rect>
  <rect x="345" y="33" width="10" height="10" rx="2" ry="2" fill="#161b22"><title>2026-03-20: 0 problem(s)</title></rect>
  <rect x="345" y="44" width="10" height="10" rx="2" ry="2" fill="#161b22"><title>2026-03-21: 0 problem(s)</title></rect>
  <rect x="345" y="55" width="10" height="10" rx="2" ry="2" fill="#161b22"><title>2026-03-22: 0 problem(s)</title></rect>
  <rect x="345" y="66" width="10" height="10" rx="2" ry="2" fill="#161b22"><title>2026-03-23: 0 problem(s)</title></rect>
  <rect x="345" y="77" width="10" height="10" rx="2" ry="2" fill="#161b22"><title>2026-03-24: 0 problem(s)</title></rect>
  <rect x="345" y="88" width="10" height="10" rx="2" ry="2" fill="#161b22"><title>2026-03-25: 0 problem(s)</title></rect>
  <rect x="356" y="22" width="10" height="10" rx="2" ry="2" fill="#161b22"><title>2026-03-26: 0 problem(s)</title></rect>
  <rect x="356" y="33" width="10" height="10" rx="2" ry="2" fill="#161b22"><title>2026-03-27: 0 problem(s)</title></rect>
  <rect x="356" y="44" width="10" height="10" rx="2" ry="2" fill="#161b22"><title>2026-03-28: 0 problem(s)</title></rect>
  <rect x="356" y="55" width="10" height="10" rx="2" ry="2" fill="#161b22"><title>2026-03-29: 0 problem(s)</title></rect>
  <rect x="356" y="66" width="10" height="10" rx="2" ry="2" fill="#161b22"><title>2026-03-30: 0 problem(s)</title></rect>
  <rect x="356" y="77" width="10" height="10" rx="2" ry="2" fill="#161b22"><title>2026-03-31: 0 problem(s)</title></rect>
  <rect x="356" y="88" width="10" height="10" rx="2" ry="2" fill="#161b22"><title>2026-04-01: 0 problem(s)</title></rect>
  <rect x="367" y="22" width="10" height="10" rx="2" ry="2" fill="#161b22"><title>2026-04-02: 0 problem(s)</title></rect>
  <rect x="367" y="33" width="10" height="10" rx="2" ry="2" fill="#161b22"><title>2026-04-03: 0 problem(s)</title></rect>
  <rect x="367" y="44" width="10" height="10" rx="2" ry="2" fill="#161b22"><title>2026-04-04: 0 problem(s)</title></rect>
  <rect x="367" y="55" width="10" height="10" rx="2" ry="2" fill="#161b22"><title>2026-04-05: 0 problem(s)</title></rect>
  <rect x="367" y="66" width="10" height="10" rx="2" ry="2" fill="#161b22"><title>2026-04-06: 0 problem(s)</title></rect>
  <rect x="367" y="77" width="10" height="10" rx="2" ry="2" fill="#161b22"><title>2026-04-07: 0 problem(s)</title></rect>
  <rect x="367" y="88" width="10" height="10" rx="2" ry="2" fill="#161b22"><title>2026-04-08: 0 problem(s)</title></rect>
  <rect x="378" y="22" width="10" height="10" rx="2" ry="2" fill="#161b22"><title>2026-04-09: 0 problem(s)</title></rect>
  <rect x="378" y="33" width="10" height="10" rx="2" ry="2" fill="#161b22"><title>2026-04-10: 0 problem(s)</title></rect>
  <rect x="378" y="44" width="10" height="10" rx="2" ry="2" fill="#161b22"><title>2026-04-11: 0 problem(s)</title></rect>
  <rect x="378" y="55" width="10" height="10" rx="2" ry="2" fill="#161b22"><title>2026-04-12: 0 problem(s)</title></rect>
  <rect x="378" y="66" width="10" height="10" rx="2" ry="2" fill="#161b22"><title>2026-04-13: 0 problem(s)</title></rect>
  <rect x="378" y="77" width="10" height="10" rx="2" ry="2" fill="#161b22"><title>2026-04-14: 0 problem(s)</title></rect>
  <rect x="378" y="88" width="10" height="10" rx="2" ry="2" fill="#161b22"><title>2026-04-15: 0 problem(s)</title></rect>
  <rect x="389" y="22" width="10" height="10" rx="2" ry="2" fill="#161b22"><title>2026-04-16: 0 problem(s)</title></rect>
  <rect x="389" y="33" width="10" height="10" rx="2" ry="2" fill="#161b22"><title>2026-04-17: 0 problem(s)</title></rect>
  <rect x="389" y="44" width="10" height="10" rx="2" ry="2" fill="#161b22"><title>2026-04-18: 0 problem(s)</title></rect>
  <rect x="389" y="55" width="10" height="10" rx="2" ry="2" fill="#161b22"><title>2026-04-19: 0 problem(s)</title></rect>
  <rect x="389" y="66" width="10" height="10" rx="2" ry="2" fill="#161b22"><title>2026-04-20: 0 problem(s)</title></rect>
  <rect x="389" y="77" width="10" height="10" rx="2" ry="2" fill="#161b22"><title>2026-04-21: 0 problem(s)</title></rect>
  <rect x="389" y="88" width="10" height="10" rx="2" ry="2" fill="#161b22"><title>2026-04-22: 0 problem(s)</title></rect>
  <rect x="400" y="22" width="10" height="10" rx="2" ry="2" fill="#161b22"><title>2026-04-23: 0 problem(s)</title></rect>
  <rect x="400" y="33" width="10" height="10" rx="2" ry="2" fill="#161b22"><title>2026-04-24: 0 problem(s)</title></rect>
  <rect x="400" y="44" width="10" height="10" rx="2" ry="2" fill="#161b22"><title>2026-04-25: 0 problem(s)</title></rect>
  <rect x="400" y="55" width="10" height="10" rx="2" ry="2" fill="#161b22"><title>2026-04-26: 0 problem(s)</title></rect>
  <rect x="400" y="66" width="10" height="10" rx="2" ry="2" fill="#161b22"><title>2026-04-27: 0 problem(s)</title></rect>
  <rect x="400" y="77" width="10" height="10" rx="2" ry="2" fill="#161b22"><title>2026-04-28: 0 problem(s)</title></rect>
  <rect x="400" y="88" width="10" height="10" rx="2" ry="2" fill="#161b22"><title>2026-04-29: 0 problem(s)</title></rect>
  <rect x="411" y="22" width="10" height="10" rx="2" ry="2" fill="#161b22"><title>2026-04-30: 0 problem(s)</title></rect>
  <rect x="411" y="33" width="10" height="10" rx="2" ry="2" fill="#161b22"><title>2026-05-01: 0 problem(s)</title></rect>
  <rect x="411" y="44" width="10" height="10" rx="2" ry="2" fill="#161b22"><title>2026-05-02: 0 problem(s)</title></rect>
  <rect x="411" y="55" width="10" height="10" rx="2" ry="2" fill="#161b22"><title>2026-05-03: 0 problem(s)</title></rect>
  <rect x="411" y="66" width="10" height="10" rx="2" ry="2" fill="#0e4429"><title>2026-05-04: 1 problem(s)</title></rect>
  <rect x="411" y="77" width="10" height="10" rx="2" ry="2" fill="#161b22"><title>2026-05-05: 0 problem(s)</title></rect>
  <rect x="411" y="88" width="10" height="10" rx="2" ry="2" fill="#161b22"><title>2026-05-06: 0 problem(s)</title></rect>
  <rect x="422" y="22" width="10" height="10" rx="2" ry="2" fill="#161b22"><title>2026-05-07: 0 problem(s)</title></rect>
  <rect x="422" y="33" width="10" height="10" rx="2" ry="2" fill="#161b22"><title>2026-05-08: 0 problem(s)</title></rect>
  <rect x="422" y="44" width="10" height="10" rx="2" ry="2" fill="#161b22"><title>2026-05-09: 0 problem(s)</title></rect>
  <rect x="422" y="55" width="10" height="10" rx="2" ry="2" fill="#161b22"><title>2026-05-10: 0 problem(s)</title></rect>
  <rect x="422" y="66" width="10" height="10" rx="2" ry="2" fill="#161b22"><title>2026-05-11: 0 problem(s)</title></rect>
  <rect x="422" y="77" width="10" height="10" rx="2" ry="2" fill="#161b22"><title>2026-05-12: 0 problem(s)</title></rect>
  <rect x="422" y="88" width="10" height="10" rx="2" ry="2" fill="#161b22"><title>2026-05-13: 0 problem(s)</title></rect>
  <rect x="433" y="22" width="10" height="10" rx="2" ry="2" fill="#161b22"><title>2026-05-14: 0 problem(s)</title></rect>
  <rect x="433" y="33" width="10" height="10" rx="2" ry="2" fill="#161b22"><title>2026-05-15: 0 problem(s)</title></rect>
  <rect x="433" y="44" width="10" height="10" rx="2" ry="2" fill="#161b22"><title>2026-05-16: 0 problem(s)</title></rect>
  <rect x="433" y="55" width="10" height="10" rx="2" ry="2" fill="#161b22"><title>2026-05-17: 0 problem(s)</title></rect>
  <rect x="433" y="66" width="10" height="10" rx="2" ry="2" fill="#161b22"><title>2026-05-18: 0 problem(s)</title></rect>
  <rect x="433" y="77" width="10" height="10" rx="2" ry="2" fill="#161b22"><title>2026-05-19: 0 problem(s)</title></rect>
  <rect x="433" y="88" width="10" height="10" rx="2" ry="2" fill="#161b22"><title>2026-05-20: 0 problem(s)</title></rect>
  <rect x="444" y="22" width="10" height="10" rx="2" ry="2" fill="#161b22"><title>2026-05-21: 0 problem(s)</title></rect>
  <rect x="444" y="33" width="10" height="10" rx="2" ry="2" fill="#161b22"><title>2026-05-22: 0 problem(s)</title></rect>
  <rect x="444" y="44" width="10" height="10" rx="2" ry="2" fill="#161b22"><title>2026-05-23: 0 problem(s)</title></rect>
  <rect x="444" y="55" width="10" height="10" rx="2" ry="2" fill="#161b22"><title>2026-05-24: 0 problem(s)</title></rect>
  <rect x="444" y="66" width="10" height="10" rx="2" ry="2" fill="#161b22"><title>2026-05-25: 0 problem(s)</title></rect>
  <rect x="444" y="77" width="10" height="10" rx="2" ry="2" fill="#161b22"><title>2026-05-26: 0 problem(s)</title></rect>
  <rect x="444" y="88" width="10" height="10" rx="2" ry="2" fill="#161b22"><title>2026-05-27: 0 problem(s)</title></rect>
  <rect x="455" y="22" width="10" height="10" rx="2" ry="2" fill="#161b22"><title>2026-05-28: 0 problem(s)</title></rect>
  <rect x="455" y="33" width="10" height="10" rx="2" ry="2" fill="#161b22"><title>2026-05-29: 0 problem(s)</title></rect>
  <rect x="455" y="44" width="10" height="10" rx="2" ry="2" fill="#161b22"><title>2026-05-30: 0 problem(s)</title></rect>
  <rect x="455" y="55" width="10" height="10" rx="2" ry="2" fill="#161b22"><title>2026-05-31: 0 problem(s)</title></rect>
  <rect x="455" y="66" width="10" height="10" rx="2" ry="2" fill="#161b22"><title>2026-06-01: 0 problem(s)</title></rect>
  <rect x="455" y="77" width="10" height="10" rx="2" ry="2" fill="#161b22"><title>2026-06-02: 0 problem(s)</title></rect>
  <rect x="455" y="88" width="10" height="10" rx="2" ry="2" fill="#161b22"><title>2026-06-03: 0 problem(s)</title></rect>
  <rect x="466" y="22" width="10" height="10" rx="2" ry="2" fill="#161b22"><title>2026-06-04: 0 problem(s)</title></rect>
  <rect x="466" y="33" width="10" height="10" rx="2" ry="2" fill="#161b22"><title>2026-06-05: 0 problem(s)</title></rect>
  <rect x="466" y="44" width="10" height="10" rx="2" ry="2" fill="#161b22"><title>2026-06-06: 0 problem(s)</title></rect>
  <rect x="466" y="55" width="10" height="10" rx="2" ry="2" fill="#161b22"><title>2026-06-07: 0 problem(s)</title></rect>
  <rect x="466" y="66" width="10" height="10" rx="2" ry="2" fill="#161b22"><title>2026-06-08: 0 problem(s)</title></rect>
  <rect x="466" y="77" width="10" height="10" rx="2" ry="2" fill="#161b22"><title>2026-06-09: 0 problem(s)</title></rect>
  <rect x="466" y="88" width="10" height="10" rx="2" ry="2" fill="#161b22"><title>2026-06-10: 0 problem(s)</title></rect>
  <rect x="477" y="22" width="10" height="10" rx="2" ry="2" fill="#161b22"><title>2026-06-11: 0 problem(s)</title></rect>
  <rect x="477" y="33" width="10" height="10" rx="2" ry="2" fill="#161b22"><title>2026-06-12: 0 problem(s)</title></rect>
  <rect x="477" y="44" width="10" height="10" rx="2" ry="2" fill="#161b22"><title>2026-06-13: 0 problem(s)</title></rect>
  <rect x="477" y="55" width="10" height="10" rx="2" ry="2" fill="#161b22"><title>2026-06-14: 0 problem(s)</title></rect>
  <rect x="477" y="66" width="10" height="10" rx="2" ry="2" fill="#161b22"><title>2026-06-15: 0 problem(s)</title></rect>
  <rect x="477" y="77" width="10" height="10" rx="2" ry="2" fill="#161b22"><title>2026-06-16: 0 problem(s)</title></rect>
  <rect x="477" y="88" width="10" height="10" rx="2" ry="2" fill="#161b22"><title>2026-06-17: 0 problem(s)</title></rect>
  <rect x="488" y="22" width="10" height="10" rx="2" ry="2" fill="#161b22"><title>2026-06-18: 0 problem(s)</title></rect>
  <rect x="488" y="33" width="10" height="10" rx="2" ry="2" fill="#161b22"><title>2026-06-19: 0 problem(s)</title></rect>
  <rect x="488" y="44" width="10" height="10" rx="2" ry="2" fill="#161b22"><title>2026-06-20: 0 problem(s)</title></rect>
  <rect x="488" y="55" width="10" height="10" rx="2" ry="2" fill="#161b22"><title>2026-06-21: 0 problem(s)</title></rect>
  <rect x="488" y="66" width="10" height="10" rx="2" ry="2" fill="#161b22"><title>2026-06-22: 0 problem(s)</title></rect>
  <rect x="488" y="77" width="10" height="10" rx="2" ry="2" fill="#161b22"><title>2026-06-23: 0 problem(s)</title></rect>
  <rect x="488" y="88" width="10" height="10" rx="2" ry="2" fill="#161b22"><title>2026-06-24: 0 problem(s)</title></rect>
  <rect x="499" y="22" width="10" height="10" rx="2" ry="2" fill="#161b22"><title>2026-06-25: 0 problem(s)</title></rect>
  <rect x="499" y="33" width="10" height="10" rx="2" ry="2" fill="#161b22"><title>2026-06-26: 0 problem(s)</title></rect>
  <rect x="499" y="44" width="10" height="10" rx="2" ry="2" fill="#161b22"><title>2026-06-27: 0 problem(s)</title></rect>
  <rect x="499" y="55" width="10" height="10" rx="2" ry="2" fill="#161b22"><title>2026-06-28: 0 problem(s)</title></rect>
  <rect x="499" y="66" width="10" height="10" rx="2" ry="2" fill="#161b22"><title>2026-06-29: 0 problem(s)</title></rect>
  <rect x="499" y="77" width="10" height="10" rx="2" ry="2" fill="#161b22"><title>2026-06-30: 0 problem(s)</title></rect>
  <rect x="499" y="88" width="10" height="10" rx="2" ry="2" fill="#161b22"><title>2026-07-01: 0 problem(s)</title></rect>
  <rect x="510" y="22" width="10" height="10" rx="2" ry="2" fill="#161b22"><title>2026-07-02: 0 problem(s)</title></rect>
  <rect x="510" y="33" width="10" height="10" rx="2" ry="2" fill="#161b22"><title>2026-07-03: 0 problem(s)</title></rect>
  <rect x="510" y="44" width="10" height="10" rx="2" ry="2" fill="#161b22"><title>2026-07-04: 0 problem(s)</title></rect>
  <rect x="510" y="55" width="10" height="10" rx="2" ry="2" fill="#161b22"><title>2026-07-05: 0 problem(s)</title></rect>
  <rect x="510" y="66" width="10" height="10" rx="2" ry="2" fill="#161b22"><title>2026-07-06: 0 problem(s)</title></rect>
  <rect x="510" y="77" width="10" height="10" rx="2" ry="2" fill="#161b22"><title>2026-07-07: 0 problem(s)</title></rect>
  <rect x="510" y="88" width="10" height="10" rx="2" ry="2" fill="#161b22"><title>2026-07-08: 0 problem(s)</title></rect>
  <rect x="521" y="22" width="10" height="10" rx="2" ry="2" fill="#161b22"><title>2026-07-09: 0 problem(s)</title></rect>
  <rect x="521" y="33" width="10" height="10" rx="2" ry="2" fill="#161b22"><title>2026-07-10: 0 problem(s)</title></rect>
  <rect x="521" y="44" width="10" height="10" rx="2" ry="2" fill="#161b22"><title>2026-07-11: 0 problem(s)</title></rect>
  <rect x="521" y="55" width="10" height="10" rx="2" ry="2" fill="#161b22"><title>2026-07-12: 0 problem(s)</title></rect>
  <rect x="521" y="66" width="10" height="10" rx="2" ry="2" fill="#161b22"><title>2026-07-13: 0 problem(s)</title></rect>
  <rect x="521" y="77" width="10" height="10" rx="2" ry="2" fill="#161b22"><title>2026-07-14: 0 problem(s)</title></rect>
  <rect x="521" y="88" width="10" height="10" rx="2" ry="2" fill="#161b22"><title>2026-07-15: 0 problem(s)</title></rect>
  <rect x="532" y="22" width="10" height="10" rx="2" ry="2" fill="#161b22"><title>2026-07-16: 0 problem(s)</title></rect>
  <rect x="532" y="33" width="10" height="10" rx="2" ry="2" fill="#161b22"><title>2026-07-17: 0 problem(s)</title></rect>
  <rect x="532" y="44" width="10" height="10" rx="2" ry="2" fill="#161b22"><title>2026-07-18: 0 problem(s)</title></rect>
  <rect x="532" y="55" width="10" height="10" rx="2" ry="2" fill="#161b22"><title>2026-07-19: 0 problem(s)</title></rect>
  <rect x="532" y="66" width="10" height="10" rx="2" ry="2" fill="#161b22"><title>2026-07-20: 0 problem(s)</title></rect>
  <rect x="532" y="77" width="10" height="10" rx="2" ry="2" fill="#161b22"><title>2026-07-21: 0 problem(s)</title></rect>
  <rect x="532" y="88" width="10" height="10" rx="2" ry="2" fill="#161b22"><title>2026-07-22: 0 problem(s)</title></rect>
  <rect x="543" y="22" width="10" height="10" rx="2" ry="2" fill="#161b22"><title>2026-07-23: 0 problem(s)</title></rect>
  <rect x="543" y="33" width="10" height="10" rx="2" ry="2" fill="#161b22"><title>2026-07-24: 0 problem(s)</title></rect>
  <rect x="543" y="44" width="10" height="10" rx="2" ry="2" fill="#161b22"><title>2026-07-25: 0 problem(s)</title></rect>
  <rect x="543" y="55" width="10" height="10" rx="2" ry="2" fill="#161b22"><title>2026-07-26: 0 problem(s)</title></rect>
  <rect x="543" y="66" width="10" height="10" rx="2" ry="2" fill="#161b22"><title>2026-07-27: 0 problem(s)</title></rect>
  <rect x="543" y="77" width="10" height="10" rx="2" ry="2" fill="#161b22"><title>2026-07-28: 0 problem(s)</title></rect>
  <rect x="543" y="88" width="10" height="10" rx="2" ry="2" fill="#161b22"><title>2026-07-29: 0 problem(s)</title></rect>
  <rect x="554" y="22" width="10" height="10" rx="2" ry="2" fill="#161b22"><title>2026-07-30: 0 problem(s)</title></rect>
  <rect x="554" y="33" width="10" height="10" rx="2" ry="2" fill="#161b22"><title>2026-07-31: 0 problem(s)</title></rect>
  <rect x="554" y="44" width="10" height="10" rx="2" ry="2" fill="#161b22"><title>2026-08-01: 0 problem(s)</title></rect>
  <rect x="554" y="55" width="10" height="10" rx="2" ry="2" fill="#161b22"><title>2026-08-02: 0 problem(s)</title></rect>
  <rect x="554" y="66" width="10" height="10" rx="2" ry="2" fill="#006d32"><title>2026-08-03: 2 problem(s)</title></rect>
  <rect x="554" y="77" width="10" height="10" rx="2" ry="2" fill="#006d32"><title>2026-08-04: 2 problem(s)</title></rect>
  <rect x="554" y="88" width="10" height="10" rx="2" ry="2" fill="#006d32"><title>2026-08-05: 2 problem(s)</title></rect>
  <rect x="565" y="22" width="10" height="10" rx="2" ry="2" fill="#0e4429"><title>2026-08-06: 1 problem(s)</title></rect>
  <rect x="565" y="33" width="10" height="10" rx="2" ry="2" fill="#161b22"><title>2026-08-07: 0 problem(s)</title></rect>
  <rect x="565" y="44" width="10" height="10" rx="2" ry="2" fill="#39d353"><title>2026-08-08: 4 problem(s)</title></rect>
  <rect x="565" y="55" width="10" height="10" rx="2" ry="2" fill="#161b22"><title>2026-08-09: 0 problem(s)</title></rect>
  <rect x="565" y="66" width="10" height="10" rx="2" ry="2" fill="#161b22"><title>2026-08-10: 0 problem(s)</title></rect>
  <rect x="565" y="77" width="10" height="10" rx="2" ry="2" fill="#161b22"><title>2026-08-11: 0 problem(s)</title></rect>
  <rect x="565" y="88" width="10" height="10" rx="2" ry="2" fill="#161b22"><title>2026-08-12: 0 problem(s)</title></rect>
  <rect x="576" y="22" width="10" height="10" rx="2" ry="2" fill="#161b22"><title>2026-08-13: 0 problem(s)</title></rect>
  <rect x="576" y="33" width="10" height="10" rx="2" ry="2" fill="#006d32"><title>2026-08-14: 2 problem(s)</title></rect>
  <rect x="576" y="44" width="10" height="10" rx="2" ry="2" fill="#39d353"><title>2026-08-15: 5 problem(s)</title></rect>
  <rect x="576" y="55" width="10" height="10" rx="2" ry="2" fill="#161b22"><title>2026-08-16: 0 problem(s)</title></rect>
  <rect x="576" y="66" width="10" height="10" rx="2" ry="2" fill="#161b22"><title>2026-08-17: 0 problem(s)</title></rect>
  <rect x="576" y="77" width="10" height="10" rx="2" ry="2" fill="#006d32"><title>2026-08-18: 2 problem(s)</title></rect>
  <rect x="576" y="88" width="10" height="10" rx="2" ry="2" fill="#0e4429"><title>2026-08-19: 1 problem(s)</title></rect>
  <rect x="587" y="22" width="10" height="10" rx="2" ry="2" fill="#0e4429"><title>2026-08-20: 1 problem(s)</title></rect>
</svg>